<svg width="175" height="44" viewBox="0 0 175 44" fill="none" xmlns="http://www.w3.org/2000/svg">
<path fill-rule="evenodd" clip-rule="evenodd" d="M19.5409 10.0338L23.1603 10.7867C28.5335 12.6818 32.3814 17.779 32.3814 23.7694C32.3814 27.4097 30.9605 30.7201 28.6398 33.1825L31.2202 38.5485C31.6712 39.4863 31.3198 40.6111 30.4137 41.13L25.4022 44C24.4363 42.3371 25.1103 40.2088 26.8602 39.3956L27.5026 39.0971L25.7763 35.5075L24.2152 32.2612L21.3262 26.2535L19.7609 22.9987C21.0015 22.673 22.0464 21.8683 22.6831 20.7958C23.1066 20.0825 23.3495 19.2508 23.3495 18.3626C23.3495 16.7749 22.5731 15.3675 21.3771 14.4949C20.7579 14.0432 20.0263 13.7348 19.2318 13.6189C19.0013 13.5853 18.7655 13.5679 18.5257 13.5679C18.2848 13.5679 18.048 13.5855 17.8166 13.6194C17.0223 13.7357 16.291 14.0444 15.6722 14.4963C14.4773 15.369 13.7018 16.7758 13.7018 18.3626C13.7018 19.2497 13.9442 20.0806 14.3667 20.7933C15.0029 21.8664 16.0474 22.6716 17.288 22.998L15.7228 26.2527L12.834 32.2598L11.2729 35.5062L9.54602 39.0971L10.1982 39.3993C11.9484 40.2102 12.6235 42.3377 11.6579 44L6.63681 41.1295C5.72981 40.611 5.37772 39.4855 5.82895 38.5472L8.40973 33.1806C6.09012 30.7183 4.6699 27.4087 4.6699 23.7694C4.6699 17.7869 8.50766 12.6954 13.8696 10.7943L13.3379 9.70789L12.8338 8.6779L11.2585 5.45912L10.4645 3.83678L9.33981 1.53874C11.1881 0.685879 13.3785 1.47786 14.254 3.31552L16.0505 7.08639C15.0253 7.69234 13.9331 8.23077 12.8338 8.6779L13.3379 9.70789L13.8887 10.7876L14.1045 11.2363L14.1314 11.2268C15.1079 10.6315 16.216 10.2286 17.4023 10.0713L17.5078 10.034C17.8439 10.0098 18.1833 9.99743 18.5257 9.99743C18.8671 9.99743 19.2056 10.0097 19.5409 10.0338ZM12.6537 24.3554L10.1198 29.6245C8.94925 27.9672 8.26214 25.9481 8.26214 23.7694C8.26214 21.5897 8.94993 19.5696 10.1216 17.9119C10.1136 18.0611 10.1096 18.2114 10.1096 18.3626C10.1096 20.7124 11.0843 22.8358 12.6537 24.3554ZM26.9297 17.9119C28.1014 19.5696 28.7892 21.5897 28.7892 23.7694C28.7892 25.9491 28.1014 27.9691 26.9298 29.6268L24.3957 24.3572C25.9663 22.8375 26.9417 20.7133 26.9417 18.3626C26.9417 18.2114 26.9377 18.0611 26.9297 17.9119Z" fill="#1B252F"/>
<path d="M17.5078 10.034C16.2472 10.125 15.0333 10.3836 13.8887 10.7876L14.1045 11.2363L14.1314 11.2268C15.1079 10.6315 16.216 10.2286 17.4023 10.0713L17.5078 10.034Z" fill="#1B252F"/>
<path d="M27.6859 1.53874C25.9093 0.686445 23.7778 1.42389 22.9078 3.19181L20.9819 7.10552C22.0024 7.70654 23.094 8.2427 24.1876 8.68657L26.5601 3.83895L27.6859 1.53874Z" fill="#1B252F"/>
<path d="M17.5078 10.034L16.0505 7.08639C15.0253 7.69234 13.9331 8.23077 12.8338 8.6779L13.3379 9.70789L13.8887 10.7876C15.0333 10.3836 16.2472 10.125 17.5078 10.034Z" fill="#1B252F"/>
<path fill-rule="evenodd" clip-rule="evenodd" d="M24.1876 8.68657C23.094 8.2427 22.0024 7.70654 20.9819 7.10552L19.5409 10.0338L22.937 11.2419L23.6867 9.71006L24.1876 8.68657ZM9.33981 1.53874C11.1881 0.685879 13.3785 1.47786 14.254 3.31552L16.0505 7.08639C15.0253 7.69234 13.9331 8.23077 12.8338 8.6779L11.2585 5.45912L10.4645 3.83678L9.33981 1.53874ZM22.398 32.9267L23.807 36.2214C22.2628 36.9994 20.6348 37.6117 18.9503 38.0454C18.655 38.1214 18.345 38.1214 18.0497 38.0454C16.3805 37.6157 14.7669 37.0105 13.2352 36.2427L14.644 32.9484C14.8514 33.0554 15.0636 33.1695 15.2791 33.2854C16.339 33.8556 17.4764 34.4675 18.5 34.4675C19.5309 34.4675 20.6981 33.8386 21.7786 33.2564C21.9889 33.143 22.1959 33.0315 22.398 32.9267Z" fill="#1B252F"/>
<path d="M0.158714 17.6301C-0.211415 14.4447 0.0674123 11.2179 0.978543 8.14158L0.989869 8.10477C1.23543 7.33657 1.97022 6.82538 2.78353 6.86231C5.16197 6.9994 7.80219 6.44358 9.49371 5.99135L11.1144 9.30053C8.85623 10.023 6.48853 10.4153 4.08576 10.4514C3.58651 12.6689 3.46424 14.957 3.72724 17.2205C3.76437 17.54 3.80908 17.8582 3.86129 18.175C3.19023 19.9117 2.82247 21.7978 2.82247 23.7694C2.82247 24.7313 2.91 25.6728 3.07759 26.5866C1.51687 23.8229 0.524537 20.7785 0.158714 17.6301Z" fill="#FF3150"/>
<path d="M34.2165 6.86231C35.0427 6.82479 35.7879 7.35296 36.0215 8.14158C36.9326 11.2179 37.2114 14.4447 36.8413 17.6301C36.4814 20.7275 35.5151 23.7242 33.9978 26.4521C34.1497 25.5805 34.2289 24.6841 34.2289 23.7694C34.2289 21.7626 33.8478 19.8444 33.1538 18.0821C33.1996 17.796 33.2393 17.5088 33.2728 17.2205C33.5358 14.957 33.4134 12.6689 32.9142 10.4514C30.5176 10.4154 28.1559 10.0251 25.903 9.30609L27.4942 6.05716C29.6551 6.68771 31.9251 6.96638 34.2165 6.86231Z" fill="#FF3150"/>
<path d="M57.3433 33C54.3502 33 51.878 32.0121 49.9268 30.0363C47.9756 28.0605 47 25.6237 47 22.7258C47 19.8091 47.9756 17.3723 49.9268 15.4153C51.878 13.4395 54.3502 12.4516 57.3433 12.4516C59.1429 12.4516 60.8005 12.875 62.316 13.7218C63.8505 14.5497 65.0439 15.6788 65.8964 17.1089L62.5149 19.0565C62.0224 18.172 61.3215 17.4852 60.4122 16.996C59.5029 16.4879 58.4799 16.2339 57.3433 16.2339C55.411 16.2339 53.8482 16.836 52.6547 18.0403C51.4802 19.2446 50.8929 20.8065 50.8929 22.7258C50.8929 24.6263 51.4802 26.1788 52.6547 27.3831C53.8482 28.5874 55.411 29.1895 57.3433 29.1895C58.4799 29.1895 59.5029 28.9449 60.4122 28.4556C61.3404 27.9476 62.0413 27.2608 62.5149 26.3952L65.8964 28.3427C65.0439 29.7728 63.8599 30.9113 62.3444 31.7581C60.8289 32.586 59.1619 33 57.3433 33Z" fill="#1B252F"/>
<path d="M68.3568 32.6048V12H72.0224V32.6048H68.3568Z" fill="#1B252F"/>
<path d="M78.4748 27.0444C78.9673 28.8132 80.3028 29.6976 82.4814 29.6976C83.8832 29.6976 84.944 29.2271 85.6639 28.2863L88.6191 29.9798C87.2173 31.9933 85.1524 33 82.4245 33C80.0755 33 78.1906 32.2944 76.7698 30.8831C75.349 29.4718 74.6386 27.6935 74.6386 25.5484C74.6386 23.422 75.3396 21.6532 76.7414 20.2419C78.1432 18.8118 79.9429 18.0968 82.1404 18.0968C84.2242 18.0968 85.9386 18.8118 87.2836 20.2419C88.6476 21.672 89.3295 23.4409 89.3295 25.5484C89.3295 26.0188 89.2822 26.5175 89.1874 27.0444H78.4748ZM78.4179 24.2218H85.6639C85.4555 23.2621 85.0198 22.547 84.3568 22.0766C83.7127 21.6062 82.9739 21.371 82.1404 21.371C81.1553 21.371 80.3407 21.625 79.6966 22.1331C79.0525 22.6223 78.6263 23.3185 78.4179 24.2218Z" fill="#1B252F"/>
<path d="M102.575 18.4919H106.241V32.6048H102.575V30.9395C101.477 32.3132 99.9328 33 97.9437 33C96.0493 33 94.4201 32.2849 93.0562 30.8548C91.7112 29.4059 91.0387 27.6371 91.0387 25.5484C91.0387 23.4597 91.7112 21.7003 93.0562 20.2702C94.4201 18.8212 96.0493 18.0968 97.9437 18.0968C99.9328 18.0968 101.477 18.7836 102.575 20.1573V18.4919ZM95.8125 28.4274C96.5513 29.1613 97.489 29.5282 98.6257 29.5282C99.7623 29.5282 100.7 29.1613 101.439 28.4274C102.197 27.6747 102.575 26.7151 102.575 25.5484C102.575 24.3817 102.197 23.4315 101.439 22.6976C100.7 21.9449 99.7623 21.5685 98.6257 21.5685C97.489 21.5685 96.5513 21.9449 95.8125 22.6976C95.0737 23.4315 94.7043 24.3817 94.7043 25.5484C94.7043 26.7151 95.0737 27.6747 95.8125 28.4274Z" fill="#1B252F"/>
<path d="M113.231 20.9194C113.572 20.0161 114.13 19.3387 114.907 18.8871C115.703 18.4355 116.584 18.2097 117.55 18.2097V22.2742C116.432 22.1425 115.428 22.3683 114.538 22.9516C113.666 23.5349 113.231 24.504 113.231 25.8589V32.6048H109.565V18.4919H113.231V20.9194Z" fill="#1B252F"/>
<path d="M130.492 18.4919H134.157V32.6048H130.492V30.9395C129.393 32.3132 127.849 33 125.86 33C123.965 33 122.336 32.2849 120.972 30.8548C119.627 29.4059 118.955 27.6371 118.955 25.5484C118.955 23.4597 119.627 21.7003 120.972 20.2702C122.336 18.8212 123.965 18.0968 125.86 18.0968C127.849 18.0968 129.393 18.7836 130.492 20.1573V18.4919ZM123.729 28.4274C124.467 29.1613 125.405 29.5282 126.542 29.5282C127.678 29.5282 128.616 29.1613 129.355 28.4274C130.113 27.6747 130.492 26.7151 130.492 25.5484C130.492 24.3817 130.113 23.4315 129.355 22.6976C128.616 21.9449 127.678 21.5685 126.542 21.5685C125.405 21.5685 124.467 21.9449 123.729 22.6976C122.99 23.4315 122.62 24.3817 122.62 25.5484C122.62 26.7151 122.99 27.6747 123.729 28.4274Z" fill="#1B252F"/>
<path d="M145.381 18.0968C146.934 18.0968 148.213 18.6142 149.217 19.6492C150.24 20.6841 150.751 22.1142 150.751 23.9395V32.6048H147.086V24.3911C147.086 23.4503 146.83 22.7352 146.318 22.246C145.807 21.7379 145.125 21.4839 144.272 21.4839C143.325 21.4839 142.568 21.7755 141.999 22.3589C141.431 22.9422 141.147 23.8172 141.147 24.9839V32.6048H137.481V18.4919H141.147V20.0726C142.037 18.7554 143.448 18.0968 145.381 18.0968Z" fill="#1B252F"/>
<path d="M162.008 21.9919H158.797V27.8629C158.797 28.3522 158.92 28.7097 159.166 28.9355C159.413 29.1613 159.773 29.293 160.246 29.3306C160.72 29.3495 161.307 29.3401 162.008 29.3024V32.6048C159.489 32.8871 157.708 32.6519 156.666 31.8992C155.643 31.1465 155.131 29.8011 155.131 27.8629V21.9919H152.659V18.4919H155.131V15.6411L158.797 14.5403V18.4919H162.008V21.9919Z" fill="#1B252F"/>
<path d="M167.669 22.5C167.669 22.8763 167.915 23.1868 168.408 23.4315C168.919 23.6573 169.535 23.8642 170.255 24.0524C170.974 24.2218 171.694 24.4476 172.414 24.7298C173.134 24.9933 173.74 25.4449 174.233 26.0847C174.744 26.7245 175 27.5242 175 28.4839C175 29.9328 174.451 31.0524 173.352 31.8427C172.272 32.6142 170.918 33 169.288 33C166.371 33 164.382 31.8804 163.321 29.6411L166.504 27.8629C166.92 29.086 167.849 29.6976 169.288 29.6976C170.596 29.6976 171.249 29.293 171.249 28.4839C171.249 28.1075 170.993 27.8065 170.482 27.5806C169.989 27.336 169.383 27.1196 168.663 26.9315C167.943 26.7433 167.224 26.5081 166.504 26.2258C165.784 25.9435 165.168 25.5013 164.657 24.8992C164.164 24.2782 163.918 23.5067 163.918 22.5847C163.918 21.1922 164.429 20.1008 165.452 19.3105C166.494 18.5013 167.782 18.0968 169.317 18.0968C170.472 18.0968 171.524 18.3602 172.471 18.8871C173.418 19.3952 174.166 20.129 174.716 21.0887L171.59 22.7823C171.135 21.8226 170.378 21.3427 169.317 21.3427C168.843 21.3427 168.445 21.4462 168.123 21.6532C167.82 21.8602 167.669 22.1425 167.669 22.5Z" fill="#1B252F"/>
</svg>
