<svg width="340" height="65" viewBox="0 0 340 65" fill="none" xmlns="http://www.w3.org/2000/svg">
<path d="M0 0L267 2.40803e-05H249.031C244.292 2.40803e-05 239.832 2.23915 237.001 6.03935L209.499 42.9607C206.668 46.7609 202.208 49 197.469 49L11 49C4.92487 49 0 53.9249 0 60V0Z" fill="#E9EEF3"/>
<path d="M43.9399 13.6789C37.9738 11.6203 31.4886 11.4504 25.4167 13.1937C25.1755 13.25 24.9485 13.3528 24.7492 13.496C24.5498 13.6391 24.3822 13.8197 24.2562 14.027C24.1302 14.2343 24.0486 14.4641 24.016 14.7027C23.9834 14.9413 24.0007 15.1837 24.0667 15.4157C24.4 16.7094 24.8833 18.1964 25.4667 19.5459C25.475 19.5783 25.4917 19.5621 25.4917 19.5298C25.4083 18.8991 25.9083 18.0986 26.8908 17.8075C31.613 16.351 36.6941 16.4163 41.3749 17.9935C42.0916 18.236 42.8916 17.856 43.1241 17.1372C43.7074 15.3195 43.9407 14.0824 43.9991 13.7759C44.0074 13.7193 43.9574 13.6951 43.9407 13.6789H43.9399ZM29.5483 17.6789C28.8317 17.8245 27.84 18.0509 27.0983 18.2935C25.6167 18.7867 25.6833 20.5397 26.4742 21.0976C26.5325 20.7742 26.8908 20.3295 27.2908 20.1839C28.7733 19.6179 30.3641 19.2791 31.9716 19.1417C31.155 18.8182 30.355 18.3573 29.5558 17.6789M41.3583 21.1866C39.2266 20.2152 36.9159 19.6683 34.5627 19.578C32.2095 19.4877 29.8616 19.856 27.6575 20.661C26.9492 20.9197 26.5075 21.7526 26.9492 22.5442C27.722 23.8992 28.5989 25.1957 29.5725 26.4229C29.4308 25.9539 29.6808 25.0815 30.6308 24.7985C33.2541 24.015 36.0108 24.3457 37.8433 25.0653C38.3599 25.2675 39.0933 25.1462 39.5016 24.5478C40.2035 23.5031 40.8401 22.4184 41.4083 21.2998C41.4333 21.2512 41.4083 21.2108 41.3583 21.1866ZM37.1024 27.466C36.3344 27.089 35.6318 26.598 35.02 26.0105C34.7366 25.7356 34.32 25.3402 33.8783 24.8712C32.8791 24.8712 31.905 24.9683 30.8641 25.2917C29.8975 25.5828 29.8058 26.6663 30.2308 27.2315C30.9475 28.0967 31.4475 28.5656 32.2466 29.3653C32.6705 29.7693 33.24 29.997 33.8341 30C34.4282 30.003 35.0001 29.7811 35.4283 29.3815C36.0215 28.8054 36.5938 28.2094 37.1441 27.5945C37.1858 27.5541 37.1691 27.4813 37.1024 27.4652" fill="#FF3150"/>
<path d="M60.5078 26H58.0312L58.0469 24.1719H60.5078C61.1224 24.1719 61.6406 24.0339 62.0625 23.7578C62.4844 23.4766 62.8021 23.0677 63.0156 22.5312C63.2344 21.9948 63.3438 21.3464 63.3438 20.5859V20.0312C63.3438 19.4479 63.2812 18.9349 63.1562 18.4922C63.0365 18.0495 62.8568 17.6771 62.6172 17.375C62.3776 17.0729 62.0833 16.8464 61.7344 16.6953C61.3854 16.5391 60.9844 16.4609 60.5312 16.4609H57.9844V14.625H60.5312C61.2917 14.625 61.987 14.7552 62.6172 15.0156C63.2526 15.2708 63.8021 15.638 64.2656 16.1172C64.7292 16.5964 65.0859 17.1693 65.3359 17.8359C65.5911 18.4974 65.7188 19.2344 65.7188 20.0469V20.5859C65.7188 21.3932 65.5911 22.1302 65.3359 22.7969C65.0859 23.4635 64.7292 24.0365 64.2656 24.5156C63.8073 24.9896 63.2578 25.3568 62.6172 25.6172C61.9818 25.8724 61.2786 26 60.5078 26ZM59.3594 14.625V26H57.0156V14.625H59.3594ZM70.2891 25.0469L72.5312 17.5469H74.9453L71.5469 27.2734C71.474 27.487 71.375 27.7161 71.25 27.9609C71.1302 28.2057 70.9661 28.4375 70.7578 28.6562C70.5547 28.8802 70.2969 29.0625 69.9844 29.2031C69.6771 29.3438 69.2995 29.4141 68.8516 29.4141C68.638 29.4141 68.4635 29.401 68.3281 29.375C68.1927 29.349 68.0312 29.3125 67.8438 29.2656V27.6172C67.901 27.6172 67.9609 27.6172 68.0234 27.6172C68.0859 27.6224 68.1458 27.625 68.2031 27.625C68.5 27.625 68.7422 27.5911 68.9297 27.5234C69.1172 27.4557 69.2682 27.3516 69.3828 27.2109C69.4974 27.0755 69.5885 26.8984 69.6562 26.6797L70.2891 25.0469ZM69.3516 17.5469L71.1875 23.6719L71.5078 26.0547L69.9766 26.2188L66.9375 17.5469H69.3516ZM78.5469 19.3516V26H76.2969V17.5469H78.4062L78.5469 19.3516ZM78.2188 21.4766H77.6094C77.6094 20.8516 77.6901 20.2891 77.8516 19.7891C78.013 19.2839 78.2396 18.8542 78.5312 18.5C78.8229 18.1406 79.1693 17.8672 79.5703 17.6797C79.9766 17.487 80.4297 17.3906 80.9297 17.3906C81.3255 17.3906 81.6875 17.4479 82.0156 17.5625C82.3438 17.6771 82.625 17.8594 82.8594 18.1094C83.099 18.3594 83.2812 18.6901 83.4062 19.1016C83.5365 19.513 83.6016 20.0156 83.6016 20.6094V26H81.3359V20.6016C81.3359 20.2266 81.2839 19.9349 81.1797 19.7266C81.0755 19.5182 80.9219 19.3724 80.7188 19.2891C80.5208 19.2005 80.276 19.1562 79.9844 19.1562C79.6823 19.1562 79.4193 19.2161 79.1953 19.3359C78.9766 19.4557 78.7943 19.6224 78.6484 19.8359C78.5078 20.0443 78.401 20.2891 78.3281 20.5703C78.2552 20.8516 78.2188 21.1536 78.2188 21.4766ZM90.375 24.0938V20.3281C90.375 20.0573 90.3307 19.8255 90.2422 19.6328C90.1536 19.4349 90.0156 19.2812 89.8281 19.1719C89.6458 19.0625 89.4089 19.0078 89.1172 19.0078C88.8672 19.0078 88.651 19.0521 88.4688 19.1406C88.2865 19.224 88.1458 19.3464 88.0469 19.5078C87.9479 19.6641 87.8984 19.849 87.8984 20.0625H85.6484C85.6484 19.7031 85.7318 19.362 85.8984 19.0391C86.0651 18.7161 86.3073 18.4323 86.625 18.1875C86.9427 17.9375 87.3203 17.7422 87.7578 17.6016C88.2005 17.4609 88.6953 17.3906 89.2422 17.3906C89.8984 17.3906 90.4818 17.5 90.9922 17.7188C91.5026 17.9375 91.9036 18.2656 92.1953 18.7031C92.4922 19.1406 92.6406 19.6875 92.6406 20.3438V23.9609C92.6406 24.4245 92.6693 24.8047 92.7266 25.1016C92.7839 25.3932 92.8672 25.6484 92.9766 25.8672V26H90.7031C90.5938 25.7708 90.5104 25.4844 90.4531 25.1406C90.401 24.7917 90.375 24.4427 90.375 24.0938ZM90.6719 20.8516L90.6875 22.125H89.4297C89.1328 22.125 88.875 22.1589 88.6562 22.2266C88.4375 22.2943 88.2578 22.3906 88.1172 22.5156C87.9766 22.6354 87.8724 22.776 87.8047 22.9375C87.7422 23.099 87.7109 23.276 87.7109 23.4688C87.7109 23.6615 87.7552 23.8359 87.8438 23.9922C87.9323 24.1432 88.0599 24.263 88.2266 24.3516C88.3932 24.4349 88.5885 24.4766 88.8125 24.4766C89.151 24.4766 89.4453 24.4089 89.6953 24.2734C89.9453 24.138 90.138 23.9714 90.2734 23.7734C90.4141 23.5755 90.487 23.388 90.4922 23.2109L91.0859 24.1641C91.0026 24.3776 90.888 24.599 90.7422 24.8281C90.6016 25.0573 90.4219 25.2734 90.2031 25.4766C89.9844 25.6745 89.7214 25.8385 89.4141 25.9688C89.1068 26.0938 88.7422 26.1562 88.3203 26.1562C87.7839 26.1562 87.2969 26.0495 86.8594 25.8359C86.4271 25.6172 86.0833 25.3177 85.8281 24.9375C85.5781 24.5521 85.4531 24.1146 85.4531 23.625C85.4531 23.1823 85.5365 22.7891 85.7031 22.4453C85.8698 22.1016 86.1146 21.8125 86.4375 21.5781C86.7656 21.3385 87.1745 21.1589 87.6641 21.0391C88.1536 20.9141 88.7214 20.8516 89.3672 20.8516H90.6719ZM97.125 19.2969V26H94.8672V17.5469H96.9844L97.125 19.2969ZM96.8125 21.4766H96.1875C96.1875 20.888 96.2578 20.3464 96.3984 19.8516C96.5443 19.3516 96.7552 18.9193 97.0312 18.5547C97.3125 18.1849 97.6589 17.8984 98.0703 17.6953C98.4818 17.4922 98.9583 17.3906 99.5 17.3906C99.875 17.3906 100.219 17.4479 100.531 17.5625C100.844 17.6719 101.112 17.8464 101.336 18.0859C101.565 18.3203 101.742 18.6276 101.867 19.0078C101.992 19.3828 102.055 19.8333 102.055 20.3594V26H99.8047V20.6094C99.8047 20.224 99.7526 19.9271 99.6484 19.7188C99.5443 19.5104 99.3958 19.3646 99.2031 19.2812C99.0156 19.1979 98.7891 19.1562 98.5234 19.1562C98.2318 19.1562 97.9766 19.2161 97.7578 19.3359C97.5443 19.4557 97.3672 19.6224 97.2266 19.8359C97.0859 20.0443 96.9818 20.2891 96.9141 20.5703C96.8464 20.8516 96.8125 21.1536 96.8125 21.4766ZM101.844 21.2188L101.039 21.3203C101.039 20.7682 101.107 20.2552 101.242 19.7812C101.383 19.3073 101.589 18.8906 101.859 18.5312C102.135 18.1719 102.477 17.8932 102.883 17.6953C103.289 17.4922 103.758 17.3906 104.289 17.3906C104.695 17.3906 105.065 17.4505 105.398 17.5703C105.732 17.6849 106.016 17.8698 106.25 18.125C106.49 18.375 106.672 18.7031 106.797 19.1094C106.927 19.5156 106.992 20.013 106.992 20.6016V26H104.734V20.6016C104.734 20.2109 104.682 19.9141 104.578 19.7109C104.479 19.5026 104.333 19.3594 104.141 19.2812C103.953 19.1979 103.729 19.1562 103.469 19.1562C103.198 19.1562 102.961 19.2109 102.758 19.3203C102.555 19.4245 102.385 19.5703 102.25 19.7578C102.115 19.9453 102.013 20.1641 101.945 20.4141C101.878 20.6589 101.844 20.9271 101.844 21.2188ZM111.609 17.5469V26H109.352V17.5469H111.609ZM109.211 15.3438C109.211 15.0156 109.326 14.7448 109.555 14.5312C109.784 14.3177 110.091 14.2109 110.477 14.2109C110.857 14.2109 111.161 14.3177 111.391 14.5312C111.625 14.7448 111.742 15.0156 111.742 15.3438C111.742 15.6719 111.625 15.9427 111.391 16.1562C111.161 16.3698 110.857 16.4766 110.477 16.4766C110.091 16.4766 109.784 16.3698 109.555 16.1562C109.326 15.9427 109.211 15.6719 109.211 15.3438ZM117.461 24.3984C117.737 24.3984 117.982 24.3464 118.195 24.2422C118.409 24.1328 118.576 23.9818 118.695 23.7891C118.82 23.5911 118.885 23.3594 118.891 23.0938H121.008C121.003 23.6875 120.844 24.2161 120.531 24.6797C120.219 25.138 119.799 25.5 119.273 25.7656C118.747 26.026 118.159 26.1562 117.508 26.1562C116.852 26.1562 116.279 26.0469 115.789 25.8281C115.305 25.6094 114.901 25.3073 114.578 24.9219C114.255 24.5312 114.013 24.0781 113.852 23.5625C113.69 23.0417 113.609 22.4844 113.609 21.8906V21.6641C113.609 21.0651 113.69 20.5078 113.852 19.9922C114.013 19.4714 114.255 19.0182 114.578 18.6328C114.901 18.2422 115.305 17.9375 115.789 17.7188C116.273 17.5 116.841 17.3906 117.492 17.3906C118.185 17.3906 118.792 17.5234 119.312 17.7891C119.839 18.0547 120.25 18.4349 120.547 18.9297C120.849 19.4193 121.003 20 121.008 20.6719H118.891C118.885 20.3906 118.826 20.1354 118.711 19.9062C118.602 19.6771 118.44 19.4948 118.227 19.3594C118.018 19.2188 117.76 19.1484 117.453 19.1484C117.125 19.1484 116.857 19.2188 116.648 19.3594C116.44 19.4948 116.279 19.6823 116.164 19.9219C116.049 20.1562 115.969 20.4245 115.922 20.7266C115.88 21.0234 115.859 21.3359 115.859 21.6641V21.8906C115.859 22.2188 115.88 22.5339 115.922 22.8359C115.964 23.138 116.042 23.4062 116.156 23.6406C116.276 23.875 116.44 24.0599 116.648 24.1953C116.857 24.3307 117.128 24.3984 117.461 24.3984ZM133.359 23.0234C133.359 22.8203 133.328 22.638 133.266 22.4766C133.208 22.3099 133.099 22.1589 132.938 22.0234C132.776 21.8828 132.549 21.7448 132.258 21.6094C131.966 21.474 131.589 21.3333 131.125 21.1875C130.609 21.0208 130.12 20.8333 129.656 20.625C129.198 20.4167 128.792 20.1745 128.438 19.8984C128.089 19.6172 127.812 19.2917 127.609 18.9219C127.411 18.5521 127.312 18.1224 127.312 17.6328C127.312 17.1589 127.417 16.7292 127.625 16.3438C127.833 15.9531 128.125 15.6198 128.5 15.3438C128.875 15.0625 129.318 14.8464 129.828 14.6953C130.344 14.5443 130.909 14.4688 131.523 14.4688C132.362 14.4688 133.094 14.6198 133.719 14.9219C134.344 15.224 134.828 15.638 135.172 16.1641C135.521 16.6901 135.695 17.2917 135.695 17.9688H133.367C133.367 17.6354 133.297 17.3438 133.156 17.0938C133.021 16.8385 132.812 16.638 132.531 16.4922C132.255 16.3464 131.906 16.2734 131.484 16.2734C131.078 16.2734 130.74 16.3359 130.469 16.4609C130.198 16.5807 129.995 16.7448 129.859 16.9531C129.724 17.1562 129.656 17.3854 129.656 17.6406C129.656 17.8333 129.703 18.0078 129.797 18.1641C129.896 18.3203 130.042 18.4661 130.234 18.6016C130.427 18.737 130.664 18.8646 130.945 18.9844C131.227 19.1042 131.552 19.2214 131.922 19.3359C132.542 19.5234 133.086 19.7344 133.555 19.9688C134.029 20.2031 134.424 20.4661 134.742 20.7578C135.06 21.0495 135.299 21.3802 135.461 21.75C135.622 22.1198 135.703 22.5391 135.703 23.0078C135.703 23.5026 135.607 23.9453 135.414 24.3359C135.221 24.7266 134.943 25.0573 134.578 25.3281C134.214 25.599 133.779 25.8047 133.273 25.9453C132.768 26.0859 132.203 26.1562 131.578 26.1562C131.016 26.1562 130.461 26.0833 129.914 25.9375C129.367 25.7865 128.87 25.5599 128.422 25.2578C127.979 24.9557 127.625 24.5703 127.359 24.1016C127.094 23.6328 126.961 23.0781 126.961 22.4375H129.312C129.312 22.7917 129.367 23.0911 129.477 23.3359C129.586 23.5807 129.74 23.7786 129.938 23.9297C130.141 24.0807 130.38 24.1901 130.656 24.2578C130.938 24.3255 131.245 24.3594 131.578 24.3594C131.984 24.3594 132.318 24.3021 132.578 24.1875C132.844 24.0729 133.039 23.9141 133.164 23.7109C133.294 23.5078 133.359 23.2786 133.359 23.0234ZM141.547 26.1562C140.891 26.1562 140.302 26.0521 139.781 25.8438C139.26 25.6302 138.818 25.3359 138.453 24.9609C138.094 24.5859 137.818 24.151 137.625 23.6562C137.432 23.1562 137.336 22.625 137.336 22.0625V21.75C137.336 21.1094 137.427 20.5234 137.609 19.9922C137.792 19.4609 138.052 19 138.391 18.6094C138.734 18.2188 139.151 17.9193 139.641 17.7109C140.13 17.4974 140.682 17.3906 141.297 17.3906C141.896 17.3906 142.427 17.4896 142.891 17.6875C143.354 17.8854 143.742 18.1667 144.055 18.5312C144.372 18.8958 144.612 19.3333 144.773 19.8438C144.935 20.349 145.016 20.9115 145.016 21.5312V22.4688H138.297V20.9688H142.805V20.7969C142.805 20.4844 142.747 20.2057 142.633 19.9609C142.523 19.7109 142.357 19.513 142.133 19.3672C141.909 19.2214 141.622 19.1484 141.273 19.1484C140.977 19.1484 140.721 19.2135 140.508 19.3438C140.294 19.474 140.12 19.6562 139.984 19.8906C139.854 20.125 139.755 20.401 139.688 20.7188C139.625 21.0312 139.594 21.375 139.594 21.75V22.0625C139.594 22.401 139.641 22.7135 139.734 23C139.833 23.2865 139.971 23.5339 140.148 23.7422C140.331 23.9505 140.549 24.112 140.805 24.2266C141.065 24.3411 141.359 24.3984 141.688 24.3984C142.094 24.3984 142.471 24.3203 142.82 24.1641C143.174 24.0026 143.479 23.7604 143.734 23.4375L144.828 24.625C144.651 24.8802 144.409 25.125 144.102 25.3594C143.799 25.5938 143.435 25.7865 143.008 25.9375C142.581 26.0833 142.094 26.1562 141.547 26.1562ZM150.289 24.3984C150.565 24.3984 150.81 24.3464 151.023 24.2422C151.237 24.1328 151.404 23.9818 151.523 23.7891C151.648 23.5911 151.714 23.3594 151.719 23.0938H153.836C153.831 23.6875 153.672 24.2161 153.359 24.6797C153.047 25.138 152.628 25.5 152.102 25.7656C151.576 26.026 150.987 26.1562 150.336 26.1562C149.68 26.1562 149.107 26.0469 148.617 25.8281C148.133 25.6094 147.729 25.3073 147.406 24.9219C147.083 24.5312 146.841 24.0781 146.68 23.5625C146.518 23.0417 146.438 22.4844 146.438 21.8906V21.6641C146.438 21.0651 146.518 20.5078 146.68 19.9922C146.841 19.4714 147.083 19.0182 147.406 18.6328C147.729 18.2422 148.133 17.9375 148.617 17.7188C149.102 17.5 149.669 17.3906 150.32 17.3906C151.013 17.3906 151.62 17.5234 152.141 17.7891C152.667 18.0547 153.078 18.4349 153.375 18.9297C153.677 19.4193 153.831 20 153.836 20.6719H151.719C151.714 20.3906 151.654 20.1354 151.539 19.9062C151.43 19.6771 151.268 19.4948 151.055 19.3594C150.846 19.2188 150.589 19.1484 150.281 19.1484C149.953 19.1484 149.685 19.2188 149.477 19.3594C149.268 19.4948 149.107 19.6823 148.992 19.9219C148.878 20.1562 148.797 20.4245 148.75 20.7266C148.708 21.0234 148.688 21.3359 148.688 21.6641V21.8906C148.688 22.2188 148.708 22.5339 148.75 22.8359C148.792 23.138 148.87 23.4062 148.984 23.6406C149.104 23.875 149.268 24.0599 149.477 24.1953C149.685 24.3307 149.956 24.3984 150.289 24.3984ZM160.641 23.9766V17.5469H162.891V26H160.773L160.641 23.9766ZM160.891 22.2422L161.555 22.2266C161.555 22.7891 161.49 23.3125 161.359 23.7969C161.229 24.276 161.034 24.6927 160.773 25.0469C160.513 25.3958 160.185 25.6693 159.789 25.8672C159.393 26.0599 158.927 26.1562 158.391 26.1562C157.979 26.1562 157.599 26.099 157.25 25.9844C156.906 25.8646 156.609 25.6797 156.359 25.4297C156.115 25.1745 155.922 24.849 155.781 24.4531C155.646 24.0521 155.578 23.5703 155.578 23.0078V17.5469H157.828V23.0234C157.828 23.2734 157.857 23.4844 157.914 23.6562C157.977 23.8281 158.062 23.9688 158.172 24.0781C158.281 24.1875 158.409 24.2656 158.555 24.3125C158.706 24.3594 158.872 24.3828 159.055 24.3828C159.518 24.3828 159.883 24.2891 160.148 24.1016C160.419 23.9141 160.609 23.6589 160.719 23.3359C160.833 23.0078 160.891 22.6432 160.891 22.2422ZM167.359 19.3906V26H165.109V17.5469H167.227L167.359 19.3906ZM169.906 17.4922L169.867 19.5781C169.758 19.5625 169.625 19.5495 169.469 19.5391C169.318 19.5234 169.18 19.5156 169.055 19.5156C168.737 19.5156 168.461 19.5573 168.227 19.6406C167.997 19.7188 167.805 19.8359 167.648 19.9922C167.497 20.1484 167.383 20.3385 167.305 20.5625C167.232 20.7865 167.19 21.0417 167.18 21.3281L166.727 21.1875C166.727 20.6406 166.781 20.138 166.891 19.6797C167 19.2161 167.159 18.8125 167.367 18.4688C167.581 18.125 167.841 17.8594 168.148 17.6719C168.456 17.4844 168.807 17.3906 169.203 17.3906C169.328 17.3906 169.456 17.401 169.586 17.4219C169.716 17.4375 169.823 17.4609 169.906 17.4922ZM173.844 17.5469V26H171.586V17.5469H173.844ZM171.445 15.3438C171.445 15.0156 171.56 14.7448 171.789 14.5312C172.018 14.3177 172.326 14.2109 172.711 14.2109C173.091 14.2109 173.396 14.3177 173.625 14.5312C173.859 14.7448 173.977 15.0156 173.977 15.3438C173.977 15.6719 173.859 15.9427 173.625 16.1562C173.396 16.3698 173.091 16.4766 172.711 16.4766C172.326 16.4766 172.018 16.3698 171.789 16.1562C171.56 15.9427 171.445 15.6719 171.445 15.3438ZM180.344 17.5469V19.1406H175.422V17.5469H180.344ZM176.641 15.4609H178.891V23.4531C178.891 23.6979 178.922 23.8854 178.984 24.0156C179.052 24.1458 179.151 24.237 179.281 24.2891C179.411 24.3359 179.576 24.3594 179.773 24.3594C179.914 24.3594 180.039 24.3542 180.148 24.3438C180.263 24.3281 180.359 24.3125 180.438 24.2969L180.445 25.9531C180.253 26.0156 180.044 26.0651 179.82 26.1016C179.596 26.138 179.349 26.1562 179.078 26.1562C178.583 26.1562 178.151 26.0755 177.781 25.9141C177.417 25.7474 177.135 25.4818 176.938 25.1172C176.74 24.7526 176.641 24.2734 176.641 23.6797V15.4609ZM184.633 25.0469L186.875 17.5469H189.289L185.891 27.2734C185.818 27.487 185.719 27.7161 185.594 27.9609C185.474 28.2057 185.31 28.4375 185.102 28.6562C184.898 28.8802 184.641 29.0625 184.328 29.2031C184.021 29.3438 183.643 29.4141 183.195 29.4141C182.982 29.4141 182.807 29.401 182.672 29.375C182.536 29.349 182.375 29.3125 182.188 29.2656V27.6172C182.245 27.6172 182.305 27.6172 182.367 27.6172C182.43 27.6224 182.49 27.625 182.547 27.625C182.844 27.625 183.086 27.5911 183.273 27.5234C183.461 27.4557 183.612 27.3516 183.727 27.2109C183.841 27.0755 183.932 26.8984 184 26.6797L184.633 25.0469ZM183.695 17.5469L185.531 23.6719L185.852 26.0547L184.32 26.2188L181.281 17.5469H183.695Z" fill="#19222C"/>
</svg>
