<svg width="48" height="49" viewBox="0 0 48 49" fill="none" xmlns="http://www.w3.org/2000/svg">
<rect width="48" height="49" rx="10" fill="#FFE5E9"/>
<path fill-rule="evenodd" clip-rule="evenodd" d="M15.5385 16.5H32.4615C32.8696 16.5 33.2609 16.6628 33.5494 16.9527C33.8379 17.2425 34 17.6356 34 18.0455V31.9545C34 32.3644 33.8379 32.7575 33.5494 33.0473C33.2609 33.3372 32.8696 33.5 32.4615 33.5H15.5385C15.1304 33.5 14.7391 33.3372 14.4506 33.0473C14.1621 32.7575 14 32.3644 14 31.9545V18.0455C14 17.6356 14.1621 17.2425 14.4506 16.9527C14.7391 16.6628 15.1304 16.5 15.5385 16.5ZM17.5897 21.7137C17.7795 21.8411 18.0026 21.9091 18.2308 21.9091C18.5368 21.9091 18.8303 21.787 19.0467 21.5696C19.2631 21.3522 19.3846 21.0574 19.3846 20.75C19.3846 20.5208 19.3169 20.2967 19.1902 20.106C19.0634 19.9154 18.8832 19.7669 18.6723 19.6791C18.4615 19.5914 18.2295 19.5685 18.0057 19.6132C17.7818 19.6579 17.5762 19.7683 17.4149 19.9304C17.2535 20.0925 17.1436 20.299 17.0991 20.5239C17.0546 20.7487 17.0774 20.9818 17.1648 21.1936C17.2521 21.4054 17.4 21.5864 17.5897 21.7137ZM21.4359 21.7137C21.6256 21.8411 21.8487 21.9091 22.0769 21.9091C22.3829 21.9091 22.6764 21.787 22.8928 21.5696C23.1092 21.3522 23.2308 21.0574 23.2308 20.75C23.2308 20.5208 23.1631 20.2967 23.0363 20.106C22.9095 19.9154 22.7293 19.7669 22.5185 19.6791C22.3076 19.5914 22.0756 19.5685 21.8518 19.6132C21.628 19.6579 21.4224 19.7683 21.261 19.9304C21.0997 20.0925 20.9898 20.299 20.9452 20.5239C20.9007 20.7487 20.9236 20.9818 21.0109 21.1936C21.0982 21.4054 21.2461 21.5864 21.4359 21.7137ZM26.529 25.8468L29.2266 24.8306L31.9241 25.8468V27.9097C31.9241 29.6203 30.7743 31.2157 29.2266 31.6052C27.6788 31.2157 26.529 29.6203 26.529 27.9097V25.8468Z" fill="#FF3150"/>
</svg>
