<svg width="33" height="33" viewBox="0 0 33 33" fill="none" xmlns="http://www.w3.org/2000/svg">
<rect width="32.5" height="33" rx="5" fill="#FFE5E9"/>
<path d="M26.1899 9.17889C20.2238 7.12026 13.7386 6.9504 7.66668 8.69374C7.42554 8.75002 7.19853 8.8528 6.99917 8.99596C6.7998 9.13911 6.63215 9.31972 6.5062 9.52703C6.38025 9.73434 6.29856 9.96412 6.266 10.2027C6.23344 10.4413 6.25068 10.6837 6.31669 10.9157C6.65002 12.2094 7.13335 13.6964 7.71668 15.0459C7.72501 15.0783 7.74168 15.0621 7.74168 15.0298C7.65834 14.3991 8.15834 13.5986 9.14084 13.3075C13.863 11.851 18.9441 11.9163 23.6249 13.4935C24.3416 13.736 25.1416 13.356 25.3741 12.6372C25.9574 10.8195 26.1907 9.58237 26.2491 9.27592C26.2574 9.21932 26.2074 9.19506 26.1907 9.17889H26.1899ZM11.7983 13.1789C11.0817 13.3245 10.09 13.5509 9.34833 13.7935C7.86668 14.2867 7.93334 16.0397 8.72417 16.5976C8.78251 16.2742 9.14084 15.8295 9.54083 15.6839C11.0233 15.1179 12.6141 14.7791 14.2216 14.6417C13.405 14.3182 12.605 13.8573 11.8058 13.1789M23.6083 16.6866C21.4766 15.7152 19.1659 15.1683 16.8127 15.078C14.4595 14.9877 12.1116 15.356 9.9075 16.161C9.19917 16.4197 8.75751 17.2526 9.19917 18.0442C9.972 19.3992 10.8489 20.6957 11.8225 21.9229C11.6808 21.4539 11.9308 20.5815 12.8808 20.2985C15.5041 19.515 18.2608 19.8457 20.0933 20.5653C20.6099 20.7675 21.3433 20.6462 21.7516 20.0478C22.4535 19.0031 23.0901 17.9184 23.6583 16.7998C23.6833 16.7512 23.6583 16.7108 23.6083 16.6866M19.3524 22.966C18.5844 22.589 17.8818 22.098 17.27 21.5105C16.9866 21.2356 16.57 20.8402 16.1283 20.3712C15.1291 20.3712 14.155 20.4683 13.1141 20.7917C12.1475 21.0828 12.0558 22.1663 12.4808 22.7315C13.1975 23.5967 13.6975 24.0656 14.4966 24.8653C14.9205 25.2693 15.49 25.4969 16.0841 25.5C16.6782 25.503 17.2501 25.2811 17.6783 24.8815C18.2715 24.3054 18.8438 23.7094 19.3941 23.0945C19.4358 23.0541 19.4191 22.9813 19.3524 22.9652" fill="#FF3150"/>
</svg>
