<svg width="72" height="72" viewBox="0 0 72 72" fill="none" xmlns="http://www.w3.org/2000/svg">
<rect width="71.0825" height="71.0825" rx="35.5412" fill="url(#paint0_linear_196_2082)"/>
<path fill-rule="evenodd" clip-rule="evenodd" d="M39.3172 49.807V22.5341C39.3172 21.3122 39.3138 20.5201 39.2366 19.9394C39.1628 19.3939 39.0436 19.2227 38.9479 19.127C38.8523 19.0314 38.6811 18.9122 38.1356 18.8384C37.5532 18.7612 36.7627 18.7578 35.5409 18.7578C34.3191 18.7578 33.5269 18.7612 32.9462 18.8384C32.4007 18.9122 32.2295 19.0314 32.1339 19.127C32.0382 19.2227 31.9191 19.3939 31.8452 19.9394C31.768 20.5217 31.7646 21.3122 31.7646 22.5341V49.807H39.3172Z" fill="white"/>
<path opacity="0.7" d="M29.2468 30.0869C29.2468 29.753 29.1142 29.4329 28.8782 29.1968C28.6421 28.9607 28.3219 28.8281 27.9881 28.8281H22.9531C22.6192 28.8281 22.2991 28.9607 22.063 29.1968C21.827 29.4329 21.6943 29.753 21.6943 30.0869V49.8073H29.2468V30.0869ZM49.3869 38.4786C49.3869 38.1447 49.2543 37.8245 49.0182 37.5885C48.7821 37.3524 48.462 37.2198 48.1281 37.2198H43.0931C42.7593 37.2198 42.4391 37.3524 42.2031 37.5885C41.967 37.8245 41.8344 38.1447 41.8344 38.4786V49.8073H49.3869V38.4786Z" fill="white"/>
<path opacity="0.5" d="M18.7578 49.8071C18.4239 49.8071 18.1038 49.9397 17.8677 50.1758C17.6316 50.4119 17.499 50.732 17.499 51.0659C17.499 51.3997 17.6316 51.7199 17.8677 51.956C18.1038 52.192 18.4239 52.3246 18.7578 52.3246H52.3245C52.6583 52.3246 52.9785 52.192 53.2146 51.956C53.4506 51.7199 53.5833 51.3997 53.5833 51.0659C53.5833 50.732 53.4506 50.4119 53.2146 50.1758C52.9785 49.9397 52.6583 49.8071 52.3245 49.8071H18.7578Z" fill="white"/>
<defs>
<linearGradient id="paint0_linear_196_2082" x1="35.5412" y1="0" x2="35.5412" y2="71.0825" gradientUnits="userSpaceOnUse">
<stop stop-color="#FF314F"/>
<stop offset="1" stop-color="#E60727"/>
</linearGradient>
</defs>
</svg>
