<svg width="62" height="62" viewBox="0 0 62 62" fill="none" xmlns="http://www.w3.org/2000/svg">
<g filter="url(#filter0_d_612_2752)">
<rect x="5.66699" y="6.3335" width="44" height="44" rx="6.66667" fill="#FF3150"/>
<path d="M35.8546 26.5407C36.9874 25.7619 37.8201 24.6163 38.2138 23.2953C38.3338 23.4592 38.4466 23.6292 38.5522 23.8052C39.277 25.0096 39.667 26.4623 39.667 28.1936C39.667 30.8543 38.6674 32.7145 37.651 33.9068C37.1877 34.4498 36.6551 34.9289 36.067 35.3318V37.5368C36.0672 37.814 36.0129 38.0884 35.9075 38.3446C35.802 38.6007 35.6474 38.8334 35.4523 39.0294C35.2573 39.2255 35.0258 39.381 34.7709 39.4871C34.516 39.5932 34.2429 39.6478 33.967 39.6478H32.467C31.9896 39.6478 31.5318 39.4573 31.1942 39.1181C30.8566 38.779 30.667 38.319 30.667 37.8394H28.267C28.267 38.319 28.0774 38.779 27.7398 39.1181C27.4022 39.4573 26.9444 39.6478 26.467 39.6478H24.967C24.41 39.6478 23.8759 39.4255 23.4821 39.0298C23.0882 38.6342 22.867 38.0976 22.867 37.538V36.7146C22.679 36.6509 22.4933 36.5805 22.3102 36.5036C21.3862 36.122 20.5443 35.5644 19.831 34.8616C19.0761 34.0968 18.4282 33.2326 17.905 32.2925C17.8661 32.2146 17.8105 32.1464 17.7423 32.0926C17.674 32.0388 17.5948 32.0009 17.5102 31.9815C16.9952 31.8953 16.5273 31.6283 16.1897 31.2281C15.8522 30.8279 15.667 30.3203 15.667 29.7958V27.6824C15.667 26.6661 16.399 25.7993 17.395 25.6329C17.4994 25.6148 17.6542 25.5099 17.7274 25.2905C17.9578 24.5949 18.4054 23.5617 19.231 22.7323C19.826 22.1463 20.4949 21.6413 21.2206 21.2301C21.3838 21.1361 21.535 21.0553 21.667 20.989V17.5495C21.667 16.4186 23.023 15.9545 23.755 16.6863C24.151 17.0829 24.727 17.611 25.3642 18.0534C26.0002 18.4946 26.6086 18.7852 27.109 18.8491C26.5156 20.0308 26.3258 21.3759 26.569 22.6768C26.7862 23.8306 27.6658 24.5599 28.4914 24.9047L32.9266 26.7493C33.7534 27.0929 34.8874 27.2014 35.8546 26.5395M22.867 26.3852C23.1853 26.3852 23.4905 26.2582 23.7155 26.0321C23.9406 25.806 24.067 25.4993 24.067 25.1796C24.067 24.8599 23.9406 24.5532 23.7155 24.3271C23.4905 24.101 23.1853 23.974 22.867 23.974C22.5487 23.974 22.2435 24.101 22.0185 24.3271C21.7934 24.5532 21.667 24.8599 21.667 25.1796C21.667 25.4993 21.7934 25.806 22.0185 26.0321C22.2435 26.2582 22.5487 26.3852 22.867 26.3852ZM35.1778 25.5449C35.7345 25.1619 36.2047 24.6654 36.5578 24.0877C36.911 23.5101 37.1391 22.8642 37.2274 22.1922C37.3168 21.5011 37.256 20.7987 37.0493 20.1334C36.8425 19.4682 36.4947 18.8559 36.0298 18.3386C35.5648 17.8214 34.9938 17.4116 34.3561 17.1373C33.7184 16.8631 33.029 16.731 32.3356 16.7502C31.6422 16.7693 30.9611 16.9392 30.3393 17.2482C29.7175 17.5572 29.1698 17.9979 28.7338 18.54C28.2978 19.0821 27.984 19.7127 27.8139 20.3883C27.6439 21.064 27.6216 21.7686 27.7486 22.4538C27.7786 22.6105 27.8314 22.7576 27.9046 22.8938C27.9646 23.0059 28.0366 23.1108 28.1206 23.2073C28.339 23.4604 28.6318 23.6582 28.951 23.792L33.3862 25.6365C33.9742 25.8812 34.6522 25.9054 35.1778 25.5449Z" fill="white"/>
</g>
<defs>
<filter id="filter0_d_612_2752" x="0.00032568" y="0.00016284" width="62" height="62" filterUnits="userSpaceOnUse" color-interpolation-filters="sRGB">
<feFlood flood-opacity="0" result="BackgroundImageFix"/>
<feColorMatrix in="SourceAlpha" type="matrix" values="0 0 0 0 0 0 0 0 0 0 0 0 0 0 0 0 0 0 127 0" result="hardAlpha"/>
<feOffset dx="3.33333" dy="2.66667"/>
<feGaussianBlur stdDeviation="4.5"/>
<feComposite in2="hardAlpha" operator="out"/>
<feColorMatrix type="matrix" values="0 0 0 0 0 0 0 0 0 0 0 0 0 0 0 0 0 0 0.1 0"/>
<feBlend mode="normal" in2="BackgroundImageFix" result="effect1_dropShadow_612_2752"/>
<feBlend mode="normal" in="SourceGraphic" in2="effect1_dropShadow_612_2752" result="shape"/>
</filter>
</defs>
</svg>
