<svg width="62" height="62" viewBox="0 0 62 62" fill="none" xmlns="http://www.w3.org/2000/svg">
<g filter="url(#filter0_d_196_2154)">
<rect x="5.66699" y="6.3335" width="44" height="44" rx="6.66667" fill="#FF3150"/>
<path d="M35.726 31.9408C36.1467 30.8643 36.3751 29.7118 36.3751 28.4453C36.3751 27.5334 36.2429 26.6596 36.0145 25.849C35.2331 26.039 34.4158 26.1403 33.5623 26.1403C31.8145 26.1423 30.0919 25.7015 28.5396 24.8552C26.9874 24.0088 25.651 22.7816 24.6432 21.2771C23.5651 24.0256 21.5313 26.2363 18.9576 27.4575C18.9095 27.7741 18.9095 28.116 18.9095 28.4453C18.9095 29.6544 19.1355 30.8517 19.5747 31.9688C20.0139 33.0858 20.6576 34.1008 21.469 34.9558C23.1079 36.6825 25.3306 37.6525 27.6483 37.6525C28.9104 37.6525 30.1245 37.3612 31.2183 36.842C31.9035 38.2224 32.216 38.9063 32.192 38.9063C30.2206 39.6029 28.6941 39.9448 27.6483 39.9448C24.7394 39.9448 21.9627 38.7417 19.9192 36.576C18.6763 35.2705 17.7524 33.667 17.2266 31.9028H15.6279V26.1403H16.9381C17.3351 24.1045 18.2478 22.2199 19.5793 20.6864C20.9107 19.1529 22.6114 18.0279 24.5008 17.4305C26.3902 16.8332 28.3978 16.7859 30.3106 17.2937C32.2235 17.8015 33.9702 18.8453 35.3654 20.3146C36.8802 21.9043 37.9135 23.9317 38.3344 26.1403H39.6687V31.9028H39.5965L35.3173 36.0441L28.9465 35.2842V33.1692H34.7523L35.726 31.9408ZM24.3667 28.154C24.7273 28.154 25.0759 28.306 25.3284 28.5846C25.582 28.8541 25.7244 29.2182 25.7244 29.5978C25.7244 29.9773 25.582 30.3415 25.3284 30.611C25.0759 30.8769 24.7273 31.0289 24.3667 31.0289C23.6095 31.0289 22.9964 30.3957 22.9964 29.5978C22.9964 28.7999 23.6095 28.154 24.3667 28.154ZM30.9178 28.154C31.6751 28.154 32.2761 28.7999 32.2761 29.5978C32.2761 30.3957 31.6751 31.0289 30.9178 31.0289C30.1605 31.0289 29.5475 30.3957 29.5475 29.5978C29.5475 29.2149 29.6919 28.8476 29.9489 28.5769C30.2059 28.3061 30.5544 28.154 30.9178 28.154Z" fill="white"/>
</g>
<defs>
<filter id="filter0_d_196_2154" x="0.00032568" y="0.00016284" width="62" height="62" filterUnits="userSpaceOnUse" color-interpolation-filters="sRGB">
<feFlood flood-opacity="0" result="BackgroundImageFix"/>
<feColorMatrix in="SourceAlpha" type="matrix" values="0 0 0 0 0 0 0 0 0 0 0 0 0 0 0 0 0 0 127 0" result="hardAlpha"/>
<feOffset dx="3.33333" dy="2.66667"/>
<feGaussianBlur stdDeviation="4.5"/>
<feComposite in2="hardAlpha" operator="out"/>
<feColorMatrix type="matrix" values="0 0 0 0 0 0 0 0 0 0 0 0 0 0 0 0 0 0 0.1 0"/>
<feBlend mode="normal" in2="BackgroundImageFix" result="effect1_dropShadow_196_2154"/>
<feBlend mode="normal" in="SourceGraphic" in2="effect1_dropShadow_196_2154" result="shape"/>
</filter>
</defs>
</svg>
