<svg width="62" height="62" viewBox="0 0 62 62" fill="none" xmlns="http://www.w3.org/2000/svg">
<g filter="url(#filter0_d_196_2133)">
<rect x="5.66699" y="6.3335" width="44" height="44" rx="6.66667" fill="#FF3150"/>
<path fill-rule="evenodd" clip-rule="evenodd" d="M23.896 24.0394L26.9986 21.2186C27.7121 20.5711 28.5572 20.0873 29.4753 19.8008C30.3934 19.5143 31.3625 19.432 32.3154 19.5594L36.4213 20.1058L42.1182 17.0118C42.2023 16.966 42.2969 16.9429 42.3926 16.9449C42.4883 16.9469 42.5818 16.9739 42.664 17.0232C42.7463 17.0724 42.8143 17.1423 42.8616 17.226C42.9088 17.3096 42.9336 17.4042 42.9336 17.5004V28.0241C42.9335 28.3773 42.8497 28.7253 42.6891 29.0393C42.5284 29.3534 42.2956 29.6244 42.0099 29.8299L38.1736 32.5863L34.0192 29.0858C34.8295 28.793 35.5605 28.3138 36.1539 27.6865C36.28 27.5553 36.3791 27.4003 36.4456 27.2306C36.5121 27.0608 36.5447 26.8795 36.5415 26.6971C36.5384 26.5147 36.4995 26.3346 36.4271 26.1673C36.3547 26 36.2502 25.8487 36.1196 25.7219C35.989 25.5952 35.8349 25.4955 35.666 25.4287C35.4971 25.3618 35.3167 25.3291 35.1352 25.3323C34.9537 25.3355 34.7746 25.3746 34.6082 25.4473C34.4417 25.5201 34.2911 25.6251 34.165 25.7564C33.7562 26.185 33.2811 26.4605 32.7242 26.5693C32.2403 26.6648 31.6237 26.6492 30.8481 26.4094L29.8625 25.5764L27.1113 27.8176C26.6094 28.217 25.973 28.4055 25.3358 28.3434C24.6986 28.2813 24.1101 27.9734 23.6939 27.4844C23.2778 26.9954 23.0664 26.3633 23.104 25.721C23.1417 25.0786 23.4256 24.4759 23.896 24.0394ZM22.0442 21.9782L24.2717 19.9548C23.314 19.6921 22.3106 19.6444 21.3326 19.8148L17.2776 20.5212L12.827 18.1134C12.7411 18.0669 12.6446 18.0436 12.547 18.0458C12.4494 18.048 12.354 18.0756 12.2702 18.126C12.1865 18.1764 12.1172 18.2478 12.0691 18.3332C12.021 18.4186 11.9959 18.5151 11.9961 18.6132V28.0219C11.9961 28.7726 12.3651 29.4745 12.9817 29.8965L25.0363 38.1569C25.7983 38.6789 26.701 38.9537 27.6231 38.9446C28.5452 38.9355 29.4423 38.6428 30.194 38.1058L35.7318 34.1544L29.8316 29.1791L28.8482 29.9743C27.7872 30.8313 26.436 31.2395 25.0807 31.1124C23.7254 30.9853 22.4726 30.3328 21.5878 29.2933C20.7029 28.2537 20.2554 26.9087 20.3402 25.5432C20.425 24.1778 21.0375 22.8991 22.0442 21.9782Z" fill="#E9EEF3"/>
</g>
<defs>
<filter id="filter0_d_196_2133" x="0.00032568" y="0.00016284" width="62" height="62" filterUnits="userSpaceOnUse" color-interpolation-filters="sRGB">
<feFlood flood-opacity="0" result="BackgroundImageFix"/>
<feColorMatrix in="SourceAlpha" type="matrix" values="0 0 0 0 0 0 0 0 0 0 0 0 0 0 0 0 0 0 127 0" result="hardAlpha"/>
<feOffset dx="3.33333" dy="2.66667"/>
<feGaussianBlur stdDeviation="4.5"/>
<feComposite in2="hardAlpha" operator="out"/>
<feColorMatrix type="matrix" values="0 0 0 0 0 0 0 0 0 0 0 0 0 0 0 0 0 0 0.1 0"/>
<feBlend mode="normal" in2="BackgroundImageFix" result="effect1_dropShadow_196_2133"/>
<feBlend mode="normal" in="SourceGraphic" in2="effect1_dropShadow_196_2133" result="shape"/>
</filter>
</defs>
</svg>
