<svg width="48" height="49" viewBox="0 0 48 49" fill="none" xmlns="http://www.w3.org/2000/svg">
<rect width="48" height="49" rx="10" fill="#FFE5E9"/>
<path d="M21.6 15.5995C21.603 15.9642 21.6908 16.3232 21.8566 16.6481C22.0224 16.9729 22.2616 17.2547 22.5552 17.4712L16.2 21.5818H14.3964C13.7608 21.5818 13.1513 21.8342 12.7019 22.2835C12.2525 22.7329 12 23.3423 12 23.9778V33.604C12 34.2394 12.2525 34.8489 12.7019 35.2982C13.1513 35.7476 13.7608 36 14.3964 36H33.5964C34.234 35.9997 34.8453 35.7462 35.2961 35.2953C35.7468 34.8444 36 34.2331 36 33.5956V23.9778C36 23.3423 35.7475 22.7329 35.2981 22.2835C34.8487 21.8342 34.2392 21.5818 33.6036 21.5818H31.8144L25.452 17.4652C25.7435 17.2487 25.9809 16.9675 26.1454 16.6438C26.3099 16.32 26.397 15.9626 26.4 15.5995C26.3941 15.1812 26.2807 14.7715 26.0705 14.4099C25.8603 14.0482 25.5605 13.7468 25.2 13.5346V12H24V14.3996C24.2373 14.3996 24.4693 14.47 24.6667 14.6018C24.864 14.7337 25.0178 14.9211 25.1087 15.1403C25.1995 15.3595 25.2232 15.6008 25.1769 15.8335C25.1306 16.0663 25.0164 16.2801 24.8485 16.4479C24.6807 16.6157 24.4669 16.7299 24.2341 16.7762C24.0013 16.8225 23.7601 16.7988 23.5408 16.7079C23.3215 16.6171 23.1341 16.4634 23.0022 16.266C22.8704 16.0687 22.8 15.8368 22.8 15.5995M23.994 17.9679L24 17.9691L24.0204 17.9667L29.6064 21.5818H18.4104L23.994 17.9679ZM18 31.1971C18 31.5153 17.8736 31.8205 17.6485 32.0455C17.4235 32.2705 17.1183 32.3969 16.8 32.3969C16.4817 32.3969 16.1765 32.2705 15.9515 32.0455C15.7264 31.8205 15.6 31.5153 15.6 31.1971V26.3978C15.6 26.0796 15.7264 25.7744 15.9515 25.5494C16.1765 25.3244 16.4817 25.198 16.8 25.198C17.1183 25.198 17.4235 25.3244 17.6485 25.5494C17.8736 25.7744 18 26.0796 18 26.3978V31.1971ZM22.8 31.1971C22.8 31.5153 22.6736 31.8205 22.4485 32.0455C22.2235 32.2705 21.9183 32.3969 21.6 32.3969C21.2817 32.3969 20.9765 32.2705 20.7515 32.0455C20.5264 31.8205 20.4 31.5153 20.4 31.1971V26.3978C20.4 26.0796 20.5264 25.7744 20.7515 25.5494C20.9765 25.3244 21.2817 25.198 21.6 25.198C21.9183 25.198 22.2235 25.3244 22.4485 25.5494C22.6736 25.7744 22.8 26.0796 22.8 26.3978V31.1971ZM27.6 31.1971C27.6 31.5153 27.4736 31.8205 27.2485 32.0455C27.0235 32.2705 26.7183 32.3969 26.4 32.3969C26.0817 32.3969 25.7765 32.2705 25.5515 32.0455C25.3264 31.8205 25.2 31.5153 25.2 31.1971V26.3978C25.2 26.0796 25.3264 25.7744 25.5515 25.5494C25.7765 25.3244 26.0817 25.198 26.4 25.198C26.7183 25.198 27.0235 25.3244 27.2485 25.5494C27.4736 25.7744 27.6 26.0796 27.6 26.3978V31.1971ZM32.4 31.1971C32.4 31.5153 32.2736 31.8205 32.0485 32.0455C31.8235 32.2705 31.5183 32.3969 31.2 32.3969C30.8817 32.3969 30.5765 32.2705 30.3515 32.0455C30.1264 31.8205 30 31.5153 30 31.1971V26.3978C30 26.0796 30.1264 25.7744 30.3515 25.5494C30.5765 25.3244 30.8817 25.198 31.2 25.198C31.5183 25.198 31.8235 25.3244 32.0485 25.5494C32.2736 25.7744 32.4 26.0796 32.4 26.3978V31.1971Z" fill="#FF3150"/>
</svg>
