<svg width="72" height="72" viewBox="0 0 72 72" fill="none" xmlns="http://www.w3.org/2000/svg">
<rect width="72" height="72" rx="36" fill="url(#paint0_linear_196_2084)"/>
<path d="M48.375 32C46.3813 32 45.2675 33.98 45.7212 35.4513L40.84 40.3462C40.4275 40.2225 39.8225 40.2225 39.41 40.3462L35.9038 36.84C36.3713 35.3688 35.2575 33.375 33.25 33.375C31.2563 33.375 30.1287 35.355 30.5962 36.84L24.3263 43.0962C22.855 42.6425 20.875 43.7563 20.875 45.75C20.875 47.2625 22.1125 48.5 23.625 48.5C25.6188 48.5 26.7325 46.52 26.2787 45.0487L32.535 38.7788C32.9475 38.9025 33.5525 38.9025 33.965 38.7788L37.4712 42.285C37.0037 43.7562 38.1175 45.75 40.125 45.75C42.1187 45.75 43.2463 43.77 42.7788 42.285L47.6737 37.4038C49.145 37.8575 51.125 36.7438 51.125 34.75C51.125 33.2375 49.8875 32 48.375 32Z" fill="white"/>
<path d="M40.125 33.375L41.4175 30.5287L44.25 29.25L41.4175 27.9713L40.125 25.125L38.86 27.9713L36 29.25L38.86 30.5287L40.125 33.375ZM24.3125 36.125L25 33.375L27.75 32.6875L25 32L24.3125 29.25L23.625 32L20.875 32.6875L23.625 33.375L24.3125 36.125Z" fill="white"/>
<defs>
<linearGradient id="paint0_linear_196_2084" x1="36" y1="0" x2="36" y2="72" gradientUnits="userSpaceOnUse">
<stop stop-color="#FF314F"/>
<stop offset="1" stop-color="#E60727"/>
</linearGradient>
</defs>
</svg>
