<svg width="24" height="24" viewBox="0 0 24 24" fill="none" xmlns="http://www.w3.org/2000/svg">
<path d="M7.00013 19.0004C6.27691 19 5.56238 18.8427 4.90584 18.5394C4.2493 18.236 3.66638 17.7939 3.1973 17.2434C2.72821 16.693 2.38413 16.0473 2.18878 15.3509C1.99343 14.6546 1.95147 13.9242 2.06579 13.21C2.18012 12.4959 2.448 11.8151 2.85096 11.2145C3.25393 10.6139 3.78238 10.108 4.39986 9.73144C5.01735 9.35492 5.70916 9.11683 6.42758 9.03361C7.146 8.95039 7.87392 9.02401 8.56113 9.2494C9.1957 7.76703 10.3225 6.5491 11.7511 5.80134C13.1797 5.05358 14.8226 4.82181 16.4023 5.14519C17.9821 5.46856 19.4018 6.32726 20.4217 7.57623C21.4415 8.82521 21.9991 10.3879 22.0001 12.0004C22.0001 13.8569 21.2626 15.6374 19.9499 16.9501C18.6371 18.2629 16.8566 19.0004 15.0001 19.0004H7.00013ZM7.00013 17.0004H15.0001C15.9031 17 16.7891 16.755 17.5641 16.2916C18.339 15.8281 18.974 15.1635 19.4016 14.3682C19.8292 13.5729 20.0335 12.6766 19.9927 11.7746C19.9519 10.8725 19.6676 9.99837 19.17 9.24489C18.6724 8.49142 17.98 7.88677 17.1664 7.49514C16.3528 7.10351 15.4483 6.93952 14.549 7.02059C13.6496 7.10165 12.789 7.42474 12.0586 7.95555C11.3281 8.48636 10.755 9.20508 10.4001 10.0354L9.68013 11.7214L7.93813 11.1494C7.52591 11.0144 7.08931 10.9704 6.65843 11.0204C6.22756 11.0704 5.81266 11.2133 5.44233 11.4392C5.07201 11.665 4.75507 11.9685 4.51336 12.3287C4.27165 12.6889 4.11093 13.0972 4.04226 13.5255C3.9736 13.9538 3.99863 14.3919 4.11564 14.8096C4.23264 15.2273 4.43883 15.6146 4.71999 15.945C5.00115 16.2753 5.3506 16.5407 5.74425 16.7229C6.13789 16.9051 6.56636 16.9998 7.00013 17.0004Z" fill="white"/>
</svg>
