<svg width="24" height="24" viewBox="0 0 24 24" fill="none" xmlns="http://www.w3.org/2000/svg">
<path d="M7.00003 19.9995C7.26525 19.9995 7.5196 19.8942 7.70714 19.7066C7.89467 19.5191 8.00003 19.2648 8.00003 18.9995C8.00003 18.7343 7.89467 18.48 7.70714 18.2924C7.5196 18.1049 7.26525 17.9995 7.00003 17.9995C6.73481 17.9995 6.48046 18.1049 6.29292 18.2924C6.10539 18.48 6.00003 18.7343 6.00003 18.9995C6.00003 19.2648 6.10539 19.5191 6.29292 19.7066C6.48046 19.8942 6.73481 19.9995 7.00003 19.9995ZM8.00003 12.9975V16.1705C8.66752 16.4064 9.23012 16.8707 9.58839 17.4813C9.94666 18.0919 10.0775 18.8096 9.95784 19.5073C9.83817 20.2051 9.47566 20.8381 8.9344 21.2944C8.39314 21.7507 7.70798 22.001 7.00003 22.001C6.29208 22.001 5.60692 21.7507 5.06566 21.2944C4.5244 20.8381 4.16189 20.2051 4.04222 19.5073C3.92254 18.8096 4.0534 18.0919 4.41167 17.4813C4.76994 16.8707 5.33254 16.4064 6.00003 16.1705V7.82853C5.33254 7.59263 4.76994 7.12834 4.41167 6.51773C4.0534 5.90712 3.92254 5.18951 4.04222 4.49175C4.16189 3.79398 4.5244 3.16099 5.06566 2.70466C5.60692 2.24833 6.29208 1.99805 7.00003 1.99805C7.70798 1.99805 8.39314 2.24833 8.9344 2.70466C9.47566 3.16099 9.83817 3.79398 9.95784 4.49175C10.0775 5.18951 9.94666 5.90712 9.58839 6.51773C9.23012 7.12834 8.66752 7.59263 8.00003 7.82853V10.1685C8.31203 10.0585 8.64703 9.99854 8.99703 9.99753L15.034 9.99153C15.2991 9.99127 15.5532 9.8858 15.7405 9.69829C15.9278 9.51078 16.033 9.25658 16.033 8.99153V7.83953C15.3614 7.60943 14.7931 7.14867 14.4291 6.53912C14.0651 5.92957 13.929 5.21071 14.045 4.51029C14.161 3.80987 14.5215 3.17325 15.0625 2.71356C15.6036 2.25387 16.2901 2.00087 17 1.99953C17.7049 1.99924 18.3874 2.24717 18.9278 2.69983C19.4681 3.15248 19.8318 3.78096 19.9551 4.47499C20.0783 5.16903 19.9532 5.8843 19.6018 6.49533C19.2503 7.10635 18.6949 7.57411 18.033 7.81653V8.99153C18.033 9.78666 17.7174 10.5493 17.1554 11.1118C16.5935 11.6743 15.8312 11.9907 15.036 11.9915L8.99903 11.9975C8.73399 11.9978 8.47989 12.1033 8.29257 12.2908C8.10525 12.4783 8.00003 12.7325 8.00003 12.9975ZM7.00003 5.99953C7.26525 5.99953 7.5196 5.89418 7.70714 5.70664C7.89467 5.5191 8.00003 5.26475 8.00003 4.99953C8.00003 4.73432 7.89467 4.47996 7.70714 4.29243C7.5196 4.10489 7.26525 3.99953 7.00003 3.99953C6.73481 3.99953 6.48046 4.10489 6.29292 4.29243C6.10539 4.47996 6.00003 4.73432 6.00003 4.99953C6.00003 5.26475 6.10539 5.5191 6.29292 5.70664C6.48046 5.89418 6.73481 5.99953 7.00003 5.99953ZM17 5.99953C17.2652 5.99953 17.5196 5.89418 17.7071 5.70664C17.8947 5.5191 18 5.26475 18 4.99953C18 4.73432 17.8947 4.47996 17.7071 4.29243C17.5196 4.10489 17.2652 3.99953 17 3.99953C16.7348 3.99953 16.4805 4.10489 16.2929 4.29243C16.1054 4.47996 16 4.73432 16 4.99953C16 5.26475 16.1054 5.5191 16.2929 5.70664C16.4805 5.89418 16.7348 5.99953 17 5.99953Z" fill="white"/>
</svg>
