<svg width="33" height="33" viewBox="0 0 33 33" fill="none" xmlns="http://www.w3.org/2000/svg">
<rect width="32.5" height="33" rx="5" fill="#FFE5E9"/>
<path d="M15.55 6.72833L9.55 8.97833C8.77 9.27833 8.25 10.0183 8.25 10.8583V15.5583C8.25 20.3883 11.38 24.9283 15.68 26.3083C16.05 26.4283 16.45 26.4283 16.82 26.3083C21.12 24.9283 24.25 20.3983 24.25 15.5583V10.8583C24.2493 10.4514 24.1245 10.0543 23.8922 9.72021C23.6599 9.38608 23.3312 9.13076 22.95 8.98833L16.95 6.73833C16.5 6.55833 16 6.55833 15.55 6.72833Z" fill="#FF3150"/>
<path fill-rule="evenodd" clip-rule="evenodd" d="M15.5174 13L15.945 13.2565C16.4873 13.5771 16.9039 14.0732 17.1259 14.6628C17.2012 14.4931 17.2908 14.3285 17.374 14.1622L17.7069 14.4951C18.4541 15.2424 19.1636 16.3622 19.1636 17.4498C19.1636 18.9082 18.2644 19.8329 16.8256 19.9928L16.3539 20.045L16.4571 19.5818C16.5375 19.2194 16.5521 18.9826 16.5351 18.8166C16.5148 18.6079 16.4157 18.444 16.2921 18.2811C16.1741 18.125 16.057 17.9686 15.9633 17.7959C15.5782 18.1003 15.4289 18.3751 15.381 18.6015C15.3199 18.8913 15.4065 19.1875 15.5646 19.5038L15.8435 20.0617L15.2239 19.9928C14.3498 19.8957 13.4885 19.3117 13.1492 18.4596C12.7946 17.5682 13.0453 16.4894 14.191 15.4965C14.9511 14.8379 15.3535 13.9837 15.5174 13ZM15.9694 14.1198C15.7109 14.846 15.2144 15.5077 14.6352 16.0096C13.6473 16.8658 13.5588 17.6534 13.78 18.2085C13.9446 18.6225 14.2999 18.9629 14.721 19.156C14.6718 18.9273 14.6704 18.6909 14.7169 18.4617C14.8276 17.9371 15.2049 17.4453 15.9297 16.9923L16.2952 16.764L16.4316 17.1729C16.5511 17.5312 16.7988 17.7847 16.9925 18.0993C17.2057 18.4454 17.2464 18.8424 17.2029 19.2388C18.092 19.0165 18.485 18.3422 18.485 17.4498C18.485 16.6957 18.0302 15.956 17.5789 15.3778C17.393 15.7945 17.001 15.9411 16.6186 16.1324V15.5834C16.6186 15.1188 16.4296 14.5525 15.9694 14.1202V14.1198Z" fill="#FFE5E9"/>
</svg>
