<svg width="25" height="28" viewBox="0 0 25 28" fill="none" xmlns="http://www.w3.org/2000/svg">
<path d="M10.4917 6.70959V9.23832M6.06934 11.1818H8.67217M16.2443 11.1818H18.8471M16.2443 14.9819H18.8471M6.06934 14.9819H8.67217M10.4917 16.9561V19.4861M14.3289 16.9561V19.4861M14.3161 6.70959V9.23832M9.93973 16.8909H14.9767C15.1439 16.8903 15.3092 16.8567 15.4634 16.7921C15.6175 16.7275 15.7574 16.6332 15.8751 16.5146C15.9928 16.3959 16.086 16.2552 16.1494 16.1006C16.2127 15.9459 16.245 15.7803 16.2443 15.6132V10.5161C16.2443 9.81076 15.6769 9.23832 14.9767 9.23832H9.93973C9.7726 9.23899 9.60723 9.27257 9.45308 9.33715C9.29893 9.40172 9.15901 9.49603 9.04131 9.61468C8.9236 9.73334 8.83042 9.87401 8.76709 10.0287C8.70375 10.1833 8.6715 10.349 8.67217 10.5161V15.6132C8.67217 16.3185 9.2395 16.8909 9.93973 16.8909Z" stroke="#FF3150" stroke-width="1.91667" stroke-linecap="round"/>
<path d="M23.958 12.6922V8.98282C23.958 6.88726 23.958 5.83948 23.4418 5.15587C22.9256 4.47226 21.7577 4.14132 19.4232 3.47687C18.0151 3.07246 16.6366 2.57167 15.2972 1.97804C13.7652 1.29826 12.9998 0.958374 12.458 0.958374C11.9162 0.958374 11.1508 1.29826 9.61879 1.97804C8.49434 2.47637 7.08879 3.02326 5.49284 3.47687C3.15834 4.14132 1.99173 4.47354 1.47423 5.15587C0.958008 5.83948 0.958008 6.88726 0.958008 8.98282V12.6922C0.958008 19.8797 7.4274 24.1922 10.6615 25.8993C11.4371 26.3082 11.8242 26.5139 12.458 26.5139C13.0918 26.5139 13.479 26.3095 14.2546 25.9006C17.4886 24.1909 23.958 19.8797 23.958 12.6922Z" stroke="#FF3150" stroke-width="1.91667" stroke-linecap="round"/>
</svg>
