<svg width="23" height="25" viewBox="0 0 23 25" fill="none" xmlns="http://www.w3.org/2000/svg">
<path d="M7.3125 13.75L9.125 11.9375C9.375 11.6875 9.495 11.3958 9.485 11.0625C9.475 10.7292 9.355 10.4375 9.125 10.1875C8.875 9.9375 8.57833 9.8075 8.235 9.7975C7.89167 9.7875 7.59458 9.90708 7.34375 10.1562L4.625 12.875C4.375 13.125 4.25 13.4167 4.25 13.75C4.25 14.0833 4.375 14.375 4.625 14.625L7.34375 17.3437C7.59375 17.5937 7.89083 17.7137 8.235 17.7037C8.57917 17.6937 8.87583 17.5633 9.125 17.3125C9.35417 17.0625 9.47417 16.7708 9.485 16.4375C9.49583 16.1042 9.37583 15.8125 9.125 15.5625L7.3125 13.75ZM15.1875 13.75L13.375 15.5625C13.125 15.8125 13.005 16.1042 13.015 16.4375C13.025 16.7708 13.145 17.0625 13.375 17.3125C13.625 17.5625 13.9221 17.6925 14.2662 17.7025C14.6104 17.7125 14.9071 17.5929 15.1562 17.3437L17.875 14.625C18.125 14.375 18.25 14.0833 18.25 13.75C18.25 13.4167 18.125 13.125 17.875 12.875L15.1562 10.1562C14.9062 9.90625 14.6096 9.78625 14.2662 9.79625C13.9229 9.80625 13.6258 9.93667 13.375 10.1875C13.1458 10.4375 13.0262 10.7292 13.0162 11.0625C13.0062 11.3958 13.1258 11.6875 13.375 11.9375L15.1875 13.75ZM2.5 25C1.8125 25 1.22417 24.7554 0.735 24.2662C0.245833 23.7771 0.000833333 23.1883 0 22.5V5C0 4.3125 0.245 3.72417 0.735 3.235C1.225 2.74583 1.81333 2.50083 2.5 2.5H7.75C8.02083 1.75 8.47417 1.14583 9.11 0.6875C9.74583 0.229167 10.4592 0 11.25 0C12.0408 0 12.7546 0.229167 13.3912 0.6875C14.0279 1.14583 14.4808 1.75 14.75 2.5H20C20.6875 2.5 21.2762 2.745 21.7662 3.235C22.2562 3.725 22.5008 4.31333 22.5 5V22.5C22.5 23.1875 22.2554 23.7762 21.7662 24.2662C21.2771 24.7562 20.6883 25.0008 20 25H2.5ZM2.5 22.5H20V5H2.5V22.5ZM11.25 4.0625C11.5208 4.0625 11.745 3.97375 11.9225 3.79625C12.1 3.61875 12.1883 3.395 12.1875 3.125C12.1867 2.855 12.0979 2.63125 11.9212 2.45375C11.7446 2.27625 11.5208 2.1875 11.25 2.1875C10.9792 2.1875 10.7554 2.27625 10.5787 2.45375C10.4021 2.63125 10.3133 2.855 10.3125 3.125C10.3117 3.395 10.4004 3.61917 10.5787 3.7975C10.7571 3.97583 10.9808 4.06417 11.25 4.0625Z" fill="#FF3150"/>
</svg>
