<svg width="512" height="512" viewBox="0 0 512 512" fill="none" xmlns="http://www.w3.org/2000/svg">
<path d="M39.8703 196.664C35.5087 158.571 38.7944 119.985 49.5309 83.1974L49.6644 82.7572C52.5581 73.5709 61.2167 67.458 70.8005 67.8997C98.8275 69.5389 129.939 62.8923 149.872 57.4845L168.969 97.0564C142.36 105.696 114.459 110.388 86.1458 110.818C80.2627 137.336 78.8218 164.697 81.921 191.765C82.3585 195.586 82.8854 199.391 83.5006 203.179C75.593 223.947 71.2594 246.502 71.2594 270.078C71.2594 281.58 72.2909 292.839 74.2657 303.767C55.8745 270.717 44.181 234.312 39.8703 196.664Z" fill="#FF314F"/>
<path d="M441.2 67.8997C450.936 67.4509 459.717 73.7669 462.469 83.1974C473.206 119.985 476.491 158.571 472.13 196.664C467.889 233.703 456.502 269.538 438.622 302.159C440.412 291.736 441.345 281.017 441.345 270.078C441.345 246.081 436.856 223.142 428.677 202.068C429.217 198.647 429.684 195.212 430.079 191.765C433.178 164.697 431.737 137.336 425.854 110.818C397.613 110.389 369.783 105.72 343.236 97.1228L361.985 58.2714C387.449 65.8117 414.199 69.1441 441.2 67.8997Z" fill="#FF314F"/>
<path fill-rule="evenodd" clip-rule="evenodd" d="M170.837 410.429L189.233 371.609L223.274 299.774L241.718 260.854C227.1 256.951 214.791 247.321 207.294 234.489C202.315 225.966 199.459 216.031 199.459 205.423C199.459 186.447 208.598 169.625 222.678 159.189C229.97 153.784 238.587 150.093 247.947 148.702C250.674 148.297 253.464 148.087 256.302 148.087C259.129 148.087 261.907 148.295 264.623 148.697C273.986 150.082 282.607 153.77 289.903 159.171C303.997 169.606 313.146 186.437 313.146 205.423C313.146 216.044 310.283 225.99 305.293 234.519C297.79 247.345 285.478 256.967 270.859 260.862L289.303 299.784L323.347 371.625L341.743 410.444L362.084 453.37L354.515 456.94C333.894 466.665 325.952 492.115 337.334 512L396.388 477.68C407.066 471.475 411.207 458.024 405.893 446.809L375.485 382.642C402.831 353.196 419.576 313.609 419.576 270.078C419.576 198.443 374.316 137.391 311 114.729L350.978 31.7456L364.244 4.23925C343.332 -5.94218 318.205 2.83997 307.993 23.9002L268.265 105.825L256.302 105.39L244.308 105.828L227.136 70.5792L205.913 25.3715C195.636 3.4821 169.816 -5.94919 148.058 4.23925L161.311 31.7196L201.437 114.919C138.252 137.652 93.0291 198.538 93.0291 270.078C93.0291 313.598 109.765 353.175 137.098 382.619L106.687 446.794C101.37 458.015 105.519 471.473 116.207 477.674L175.374 512C186.752 492.122 178.798 466.681 158.173 456.983L150.488 453.37L170.837 410.429ZM157.271 200.033C143.464 219.856 135.359 244.012 135.359 270.078C135.359 296.131 143.456 320.277 157.25 340.094L187.109 277.085C168.615 258.914 157.271 228.131 157.271 200.033ZM377.246 270.078C377.246 244.012 369.141 219.856 355.334 200.033C355.334 228.143 343.981 258.934 325.474 277.107L355.335 340.122C369.141 320.299 377.246 296.143 377.246 270.078Z" fill="white"/>
<path fill-rule="evenodd" clip-rule="evenodd" d="M218.042 383.871C218.039 383.869 218.036 383.867 218.032 383.866L218.042 383.871Z" fill="white"/>
<path d="M261.307 440.794C257.826 441.703 254.174 441.703 250.693 440.794C231.024 435.655 212.009 428.418 193.961 419.236L210.562 379.843C212.852 381.041 215.193 382.316 217.567 383.612L218.032 383.866L218.042 383.871L218.045 383.873C230.535 390.691 243.938 398.008 256 398.008C268.148 398.008 281.902 390.488 294.634 383.525L294.638 383.523C297.115 382.169 299.553 380.835 301.934 379.583L318.536 418.982C300.34 428.285 281.157 435.608 261.307 440.794Z" fill="white"/>
</svg>
