<svg width="62" height="62" viewBox="0 0 62 62" fill="none" xmlns="http://www.w3.org/2000/svg">
<g filter="url(#filter0_d_611_2742)">
<rect x="5.66699" y="6.3335" width="44" height="44" rx="6.66667" fill="#FF3150"/>
<path fill-rule="evenodd" clip-rule="evenodd" d="M22.4686 18.9418C23.3643 18.8703 24.2146 18.518 24.8984 17.9351C25.6708 17.2773 26.6521 16.916 27.6666 16.916C28.6811 16.916 29.6624 17.2773 30.4347 17.9351C31.1185 18.518 31.9688 18.8703 32.8645 18.9418C33.876 19.0226 34.8257 19.4611 35.5432 20.1787C36.2607 20.8962 36.6992 21.8458 36.78 22.8573C36.8511 23.7526 37.2033 24.6034 37.7868 25.2871C38.4446 26.0594 38.8058 27.0408 38.8058 28.0553C38.8058 29.0697 38.4446 30.0511 37.7868 30.8234C37.2038 31.5072 36.8516 32.3575 36.78 33.2532C36.6992 34.2647 36.2607 35.2143 35.5432 35.9319C34.8257 36.6494 33.876 37.0879 32.8645 37.1687C31.9688 37.2402 31.1185 37.5925 30.4347 38.1754C29.6624 38.8332 28.6811 39.1945 27.6666 39.1945C26.6521 39.1945 25.6708 38.8332 24.8984 38.1754C24.2146 37.5925 23.3643 37.2402 22.4686 37.1687C21.4571 37.0879 20.5075 36.6494 19.79 35.9319C19.0725 35.2143 18.634 34.2647 18.5531 33.2532C18.4816 32.3575 18.1293 31.5072 17.5464 30.8234C16.8886 30.0511 16.5273 29.0697 16.5273 28.0553C16.5273 27.0408 16.8886 26.0594 17.5464 25.2871C18.1293 24.6033 18.4816 23.753 18.5531 22.8573C18.634 21.8458 19.0725 20.8962 19.79 20.1787C20.5075 19.4611 21.4571 19.0226 22.4686 18.9418ZM32.8283 26.2548C33.082 25.9922 33.2223 25.6405 33.2191 25.2754C33.216 24.9103 33.0695 24.5611 32.8114 24.3029C32.5532 24.0447 32.204 23.8983 31.8389 23.8951C31.4738 23.892 31.122 24.0323 30.8594 24.286L26.2742 28.8712L24.4737 27.0708C24.2111 26.8172 23.8594 26.6768 23.4943 26.68C23.1292 26.6832 22.78 26.8296 22.5218 27.0878C22.2636 27.3459 22.1172 27.6952 22.114 28.0603C22.1109 28.4254 22.2512 28.7771 22.5048 29.0397L25.2897 31.8246C25.5508 32.0856 25.9049 32.2322 26.2742 32.2322C26.6434 32.2322 26.9975 32.0856 27.2586 31.8246L32.8283 26.2548Z" fill="white"/>
</g>
<defs>
<filter id="filter0_d_611_2742" x="0.00032568" y="0.00016284" width="62" height="62" filterUnits="userSpaceOnUse" color-interpolation-filters="sRGB">
<feFlood flood-opacity="0" result="BackgroundImageFix"/>
<feColorMatrix in="SourceAlpha" type="matrix" values="0 0 0 0 0 0 0 0 0 0 0 0 0 0 0 0 0 0 127 0" result="hardAlpha"/>
<feOffset dx="3.33333" dy="2.66667"/>
<feGaussianBlur stdDeviation="4.5"/>
<feComposite in2="hardAlpha" operator="out"/>
<feColorMatrix type="matrix" values="0 0 0 0 0 0 0 0 0 0 0 0 0 0 0 0 0 0 0.1 0"/>
<feBlend mode="normal" in2="BackgroundImageFix" result="effect1_dropShadow_611_2742"/>
<feBlend mode="normal" in="SourceGraphic" in2="effect1_dropShadow_611_2742" result="shape"/>
</filter>
</defs>
</svg>
