<svg width="62" height="62" viewBox="0 0 62 62" fill="none" xmlns="http://www.w3.org/2000/svg">
<g filter="url(#filter0_d_196_2121)">
<rect x="5.66699" y="6.3335" width="44" height="44" rx="6.66667" fill="#FF3150"/>
<path d="M36.8072 16.9448H18.2045C16.6634 16.9448 15.4141 18.232 15.4141 19.8198V33.2363C15.4141 34.8241 16.6634 36.1112 18.2045 36.1112H36.8072C38.3483 36.1112 39.5976 34.8241 39.5976 33.2363V19.8198C39.5976 18.232 38.3483 16.9448 36.8072 16.9448Z" fill="white"/>
<path d="M31.2257 38.0283H23.7846C23.5379 38.0283 23.3014 38.1293 23.1269 38.309C22.9525 38.4887 22.8545 38.7325 22.8545 38.9866C22.8545 39.2408 22.9525 39.4846 23.1269 39.6643C23.3014 39.844 23.5379 39.945 23.7846 39.945H31.2257C31.4724 39.945 31.709 39.844 31.8834 39.6643C32.0578 39.4846 32.1558 39.2408 32.1558 38.9866C32.1558 38.7325 32.0578 38.4887 31.8834 38.309C31.709 38.1293 31.4724 38.0283 31.2257 38.0283Z" fill="white"/>
</g>
<defs>
<filter id="filter0_d_196_2121" x="0.00032568" y="0.00016284" width="62" height="62" filterUnits="userSpaceOnUse" color-interpolation-filters="sRGB">
<feFlood flood-opacity="0" result="BackgroundImageFix"/>
<feColorMatrix in="SourceAlpha" type="matrix" values="0 0 0 0 0 0 0 0 0 0 0 0 0 0 0 0 0 0 127 0" result="hardAlpha"/>
<feOffset dx="3.33333" dy="2.66667"/>
<feGaussianBlur stdDeviation="4.5"/>
<feComposite in2="hardAlpha" operator="out"/>
<feColorMatrix type="matrix" values="0 0 0 0 0 0 0 0 0 0 0 0 0 0 0 0 0 0 0.1 0"/>
<feBlend mode="normal" in2="BackgroundImageFix" result="effect1_dropShadow_196_2121"/>
<feBlend mode="normal" in="SourceGraphic" in2="effect1_dropShadow_196_2121" result="shape"/>
</filter>
</defs>
</svg>
