<svg width="1826" height="1207" viewBox="0 0 1826 1207" fill="none" xmlns="http://www.w3.org/2000/svg">
<path d="M478.021 0.5H1345.44C1350.05 0.500034 1354.62 2.3408 1359.06 5.32617C1363.5 8.31095 1367.79 12.4183 1371.83 16.8965C1375.86 21.3734 1379.63 26.2046 1383.05 30.6309C1386.47 35.0471 1389.55 39.0766 1392.17 41.9141L1415.84 67.5059C1426.38 78.8997 1444.22 85.7204 1463.3 85.7207H1797.82C1805.51 85.7207 1812.45 87.9367 1817.46 91.4941C1822.46 95.0524 1825.5 99.9221 1825.5 105.248V1186.5C1825.5 1197.27 1816.77 1206 1806 1206H20C9.23046 1206 0.500001 1197.27 0.5 1186.5V105.248L0.508789 104.75C0.691796 99.619 3.69316 94.9411 8.54297 91.4941C13.5483 87.9367 20.4891 85.7208 28.1787 85.7207H360.163C379.24 85.7207 397.087 78.8999 407.625 67.5059L431.294 41.9141C433.918 39.0766 436.995 35.0471 440.409 30.6309C443.831 26.2046 447.603 21.3734 451.639 16.8965C455.675 12.4182 459.96 8.31097 464.402 5.32617C468.706 2.43401 473.127 0.616636 477.589 0.505859L478.021 0.5Z" fill="#E8ECF2" stroke="#BFCCD9"/>
</svg>
